:SAMPLES-PER-SECOND 30
:FULLY-SPECIFIED
:DEGREES
600
root  37.2935 30.5882 17.9142 -162.266 82.3211 -160.735
RightUpLeg  -31.3824 14.9465 2.68099
RightLeg  60.1696 6.68643 9.89062
RightFoot  -5.1277 -0.0764343 -1.32948
RightToes  -45.8371 -0.26671 -0.345666
Spine  9.26932 -2.64187 -1.48214
Spine1  16.1648 -5.74502 -1.19049
HEad  41.0167 -24.2623 23.4649
LeftShoulder1  0 -2.42657e-020 -4.95415e-022
LeftArm  -18.4393 -14.4825 -77.9299
LeftForeArm  -165.631 -32.4379 -5.97233
LeftHand  11.9535 -30.3163 -42.6362
RightShoulder  0 2.42657e-020 1.07489e-018
RightArm  -26.1337 3.17771 95.365
RightForeArm  53.2991 18.7243 3.39054
RightHand  -1.40681 23.4282 -6.40892
LeftUpLeg  -42.0594 -13.8543 9.2111
LeftLeg  49.9482 1.48348 1.54258
LeftFoot  1.79194 0.00264441 -0.169102
LeftToes  0.199941 1.18758e-006 1.19596e-007
601
root  38.5468 30.2426 16.7102 -45.0095 88.7264 -41.9329
RightUpLeg  -30.5589 19.4522 0.135765
RightLeg  64.3055 8.30027 14.2838
RightFoot  -6.99641 -0.160364 -2.24549
RightToes  -48.2474 -0.287487 -0.356817
Spine  8.98513 -2.49608 -2.85139
Spine1  16.2061 -5.44767 -3.15226
HEad  39.4162 -24.4394 22.9789
LeftShoulder1  0 -2.42657e-020 -4.95415e-022
LeftArm  -23.5144 -13.9938 -71.8828
LeftForeArm  -163.742 -33.8126 -6.3128
LeftHand  10.9876 -30.7928 -38.8824
RightShoulder  0 2.42657e-020 1.07489e-018
RightArm  -19.1249 -1.7384 93.8837
RightForeArm  47.8046 22.7918 4.2221
RightHand  -1.72269 24.177 -7.6629
LeftUpLeg  -42.0465 -27.0975 18.9664
LeftLeg  40.7453 -8.29081 -6.22106
LeftFoot  7.72176 0.116903 -1.7321
LeftToes  -9.91291 1.18758e-006 1.19596e-007
602
root  39.9205 29.6792 15.5521 -1.14978 79.7744 4.26308
RightUpLeg  -29.5348 22.9983 -1.44435
RightLeg  69.1608 8.12577 17.0824
RightFoot  -9.78381 -0.329449 -3.47051
RightToes  -49.1584 -0.295459 -0.360803
Spine  8.92139 -1.56548 -3.89743
Spine1  16.5312 -3.77172 -4.34929
HEad  36.557 -27.0439 22.6138
LeftShoulder1  0 -2.42657e-020 -4.95415e-022
LeftArm  -27.8735 -13.7951 -67.5318
LeftForeArm  -167.674 -36.2718 -6.95455
LeftHand  10.2574 -32.6902 -34.408
RightShoulder  0 2.42657e-020 1.07489e-018
RightArm  -14.5238 -5.94574 90.0655
RightForeArm  42.8429 27.5587 5.26103
RightHand  -1.60266 24.0173 -7.15583
LeftUpLeg  -42.3844 -41.4518 28.7821
LeftLeg  39.0484 -15.8232 -10.9584
LeftFoot  9.53401 0.305885 -3.66679
LeftToes  -55.04 1.18758e-006 1.19596e-007
603
root  41.1644 28.929 14.564 -0.32489 70.4819 6.56189
RightUpLeg  -31.1242 23.2079 -2.03613
RightLeg  75.883 4.52544 13.5664
RightFoot  -11.3405 -0.334559 -2.99122
RightToes  -45.7778 -0.266205 -0.34538
Spine  8.75099 -0.464571 -4.45729
Spine1  16.5111 -1.60554 -5.32242
HEad  31.174 -30.8629 23.9062
LeftShoulder1  0 -2.42657e-020 -4.95415e-022
LeftArm  -30.8724 -13.9891 -63.345
LeftForeArm  -166.842 -40.9395 -8.28981
LeftHand  8.55743 -35.5819 -26.6228
RightShoulder  0 2.42657e-020 1.07489e-018
RightArm  -11.5167 -9.01786 85.0841
RightForeArm  38.4167 32.82 6.51961
RightHand  -1.07313 23.742 -4.73317
LeftUpLeg  -36.7472 -38.9818 25.5424
LeftLeg  42.7525 -17.7822 -13.9301
LeftFoot  0.582471 0.00249935 -0.491711
LeftToes  -63.7697 1.18758e-006 1.19596e-007
604
root  41.9612 27.8984 13.0724 3.97882 60.6779 11.6252
RightUpLeg  -37.222 19.1074 -4.39966
RightLeg  85.3312 0.287892 1.26462
RightFoot  -14.1622 -0.09322 -0.372893
RightToes  -25.6832 -0.115352 -0.220872
Spine  8.82272 0.224903 -5.66483
Spine1  16.7048 0.0781366 -7.87737
HEad  24.0049 -34.5024 27.3977
LeftShoulder1  0 -2.42657e-020 -4.95415e-022
LeftArm  -38.0623 -13.7328 -57.8447
LeftForeArm  -168.367 -45.3362 -9.73856
LeftHand  7.93085 -38.0877 -23.0839
RightShoulder  0 2.42657e-020 1.07489e-018
RightArm  -9.08628 -8.3855 80.7732
RightForeArm  34.297 36.9443 7.61797
RightHand  -0.716388 23.7895 -3.03087
LeftUpLeg  -33.3334 -26.7649 16.8192
LeftLeg  49.6792 -15.2628 -15.2539
LeftFoot  -7.58447 0.186078 2.80672
LeftToes  -61.3659 1.18758e-006 1.19596e-007
605
root  42.5196 26.96 11.7856 3.98846 54.2256 11.4408
RightUpLeg  -41.9289 11.8364 -0.878903
RightLeg  91.3585 -0.600772 -17.0654
RightFoot  -23.3953 1.38456 7.05768
RightToes  10.148 0.0166394 0.0977491
Spine  9.40765 -0.157295 -5.83729
Spine1  17.6094 -0.534146 -8.45125
HEad  15.4124 -37.7468 33.1459
LeftShoulder1  0 -2.42657e-020 -4.95415e-022
LeftArm  -42.8518 -15.1143 -52.252
LeftForeArm  -178.792 -46.4146 -10.1449
LeftHand  6.32489 -41.9315 -16.7823
RightShoulder  0 2.42657e-020 1.07489e-018
RightArm  -9.37818 -4.54391 77.7461
RightForeArm  31.0386 38.5574 8.08183
RightHand  -0.43108 23.2107 -1.7293
LeftUpLeg  -35.5023 -22.214 14.3998
LeftLeg  57.176 -11.5417 -15.1365
LeftFoot  -12.7454 0.471819 4.22264
LeftToes  -59.1661 1.18758e-006 1.19596e-007
606
root  43.0322 26.3008 10.8009 2.39252 49.1926 10.9174
RightUpLeg  -42.6261 5.40815 5.1577
RightLeg  93.9878 0.212654 -16.9516
RightFoot  -26.2626 1.71239 7.70868
RightToes  7.59066 0.0140828 0.0728619
Spine  10.6712 -0.96932 -5.86405
Spine1  19.6481 -2.13592 -8.39566
HEad  8.64004 -41.0839 39.7817
LeftShoulder1  0 -2.42657e-020 -4.95415e-022
LeftArm  -40.407 -16.3771 -47.2387
LeftForeArm  174.475 -46.7348 -10.2792
LeftHand  4.98556 -43.4161 -12.853
RightShoulder  0 2.42657e-020 1.07489e-018
RightArm  -13.2505 0.486662 78.0978
RightForeArm  31.6784 38.3458 8.01967
RightHand  -0.113493 22.927 -0.189698
LeftUpLeg  -36.9182 -19.3231 12.2945
LeftLeg  64.2921 -8.40555 -14.5611
LeftFoot  -14.8416 0.559298 4.29217
LeftToes  -58.3583 1.18758e-006 1.19596e-007
